<svg xmlns="http://www.w3.org/2000/svg" width="237.773" height="51.19" viewBox="0 0 237.773 51.19"><g transform="translate(0 0.01)"><path d="M80.046,72.283H65V63h41.125v9.28H91.089V113.2H80.046Z" transform="translate(-65 -63.01)"/><path d="M198.48,63h9.983V81.91h.208a11.948,11.948,0,0,1,4.841-4.564,12.83,12.83,0,0,1,5.776-1.466,16.974,16.974,0,0,1,6.575,1.09,9.772,9.772,0,0,1,4.042,3.022A11.734,11.734,0,0,1,231.98,84.7a29.392,29.392,0,0,1,.6,6.149V113.2h-9.983V92.672q0-4.5-1.44-6.714T216.2,83.742q-4.082,0-5.908,2.424t-1.826,7.982V113.2H198.48Z" transform="translate(-154.399 -63.01)"/><path d="M315.14,103h9.491v6.75h.142a12.109,12.109,0,0,1,1.9-3.131,12.44,12.44,0,0,1,2.741-2.46,13.262,13.262,0,0,1,3.342-1.582,12.08,12.08,0,0,1,3.633-.561,6.846,6.846,0,0,1,2.156.324v9.28c-.469-.092-1.03-.175-1.691-.244a17.975,17.975,0,0,0-1.9-.106,10.6,10.6,0,0,0-4.64.915,8.025,8.025,0,0,0-3.058,2.493,10.017,10.017,0,0,0-1.651,3.728,20.109,20.109,0,0,0-.492,4.534V139.33H315.14Z" transform="translate(-232.534 -89.143)"/><path d="M397.28,123.567q.211,4.785,2.46,7a10.176,10.176,0,0,0,11.671.7,6.273,6.273,0,0,0,2.672-3.2h8.781q-2.1,6.469-6.469,9.349A18.74,18.74,0,0,1,405.86,140.3a20.287,20.287,0,0,1-7.734-1.407,16.429,16.429,0,0,1-5.835-3.936,17.5,17.5,0,0,1-3.692-6.047,22.087,22.087,0,0,1-1.3-7.734,21.192,21.192,0,0,1,1.337-7.6,17.585,17.585,0,0,1,9.666-10.122A18.824,18.824,0,0,1,405.86,102a17.319,17.319,0,0,1,8.081,1.793,16.1,16.1,0,0,1,5.66,4.812,19.814,19.814,0,0,1,3.2,6.889,25.808,25.808,0,0,1,.7,8.084Zm16.241-6.327a11.534,11.534,0,0,0-2.5-5.763q-1.793-1.968-5.446-1.981a8.646,8.646,0,0,0-3.963.809,7.559,7.559,0,0,0-2.533,2,7.315,7.315,0,0,0-1.321,2.53,11.5,11.5,0,0,0-.459,2.391Z" transform="translate(-280.86 -89.127)"/><path d="M514.187,123.567q.208,4.785,2.46,7a10.177,10.177,0,0,0,11.671.7,6.289,6.289,0,0,0,2.672-3.2h8.788q-2.11,6.469-6.469,9.349a18.739,18.739,0,0,1-10.545,2.886,20.287,20.287,0,0,1-7.721-1.41,16.489,16.489,0,0,1-5.835-3.936,17.549,17.549,0,0,1-3.689-6.047,22.087,22.087,0,0,1-1.3-7.734,21.26,21.26,0,0,1,1.321-7.6,17.579,17.579,0,0,1,9.669-10.122A18.824,18.824,0,0,1,522.763,102a17.276,17.276,0,0,1,8.084,1.793,16.1,16.1,0,0,1,5.66,4.812,19.814,19.814,0,0,1,3.2,6.889,25.809,25.809,0,0,1,.7,8.084Zm16.238-6.327a11.534,11.534,0,0,0-2.5-5.763q-1.793-1.968-5.446-1.981a8.656,8.656,0,0,0-3.963.809,7.546,7.546,0,0,0-2.53,2,7.323,7.323,0,0,0-1.338,2.53,11.054,11.054,0,0,0-.456,2.391Z" transform="translate(-359.168 -89.127)"/><path d="M684.208,84.1V94.635H664.625v19.58H654.093V94.631H634.51V84.1h19.583V64.52h10.531V84.1Z" transform="translate(-446.435 -64.028)"/></g></svg>